<?xml version="1.0" standalone="no"?>
<!DOCTYPE svg PUBLIC "-//W3C//DTD SVG 20010904//EN"
 "http://www.w3.org/TR/2001/REC-SVG-20010904/DTD/svg10.dtd">
<svg version="1.0" xmlns="http://www.w3.org/2000/svg"
 width="400.000000pt" height="400.000000pt" viewBox="0 0 400.000000 400.000000"
 preserveAspectRatio="xMidYMid meet">
<metadata>
Created by potrace 1.11, written by Peter Selinger 2001-2013
</metadata>
<g transform="translate(0.000000,400.000000) scale(0.100000,-0.100000)"
fill="#000000" stroke="none">
<path d="M183 3976 c-66 -31 -128 -93 -159 -159 l-24 -52 0 -1756 c0 -2006
-10 -1811 94 -1915 104 -104 -91 -94 1915 -94 l1756 0 52 24 c66 31 128 93
159 159 l24 52 0 1756 c0 2006 10 1811 -94 1915 -104 104 91 94 -1915 94
l-1756 0 -52 -24z m2127 -562 c447 -76 825 -358 980 -732 77 -184 100 -344
100 -697 l0 -245 -1095 0 -1095 0 0 -33 c0 -48 27 -142 60 -211 65 -136 188
-249 365 -336 126 -62 236 -89 391 -97 325 -16 604 79 793 267 l58 59 167
-182 166 -182 -72 -68 c-199 -187 -471 -318 -773 -373 -154 -28 -503 -26 -642
4 -187 41 -346 107 -493 205 -333 222 -523 522 -591 932 -20 117 -18 456 4
570 39 215 131 438 237 577 234 308 596 514 980 557 112 13 342 5 460 -15z"/>
<path d="M1912 2930 c-287 -40 -550 -212 -652 -426 -33 -68 -56 -160 -62 -246
l-5 -58 805 0 805 0 -6 93 c-22 368 -308 622 -723 641 -55 3 -127 1 -162 -4z"/>
</g>
</svg>
