<?xml version="1.0" standalone="no"?>
<!DOCTYPE svg PUBLIC "-//W3C//DTD SVG 20010904//EN"
 "http://www.w3.org/TR/2001/REC-SVG-20010904/DTD/svg10.dtd">
<svg version="1.0" xmlns="http://www.w3.org/2000/svg"
 width="600.000000pt" height="600.000000pt" viewBox="0 0 600.000000 600.000000"
 preserveAspectRatio="xMidYMid meet">
<metadata>
Created by potrace 1.11, written by Peter Selinger 2001-2013
</metadata>
<g transform="translate(0.000000,600.000000) scale(0.100000,-0.100000)"
fill="#000000" stroke="none">
<path d="M340 5981 c-88 -28 -140 -60 -201 -120 -61 -61 -104 -135 -125 -216
-11 -41 -14 -510 -14 -2646 0 -2848 -5 -2631 57 -2753 32 -64 125 -157 189
-189 122 -62 -95 -57 2780 -55 l2621 3 84 42 c107 53 175 122 227 230 l37 78
3 2600 c2 1901 0 2616 -8 2660 -35 186 -182 335 -368 374 -38 8 -788 11 -2640
10 -2451 0 -2590 -1 -2642 -18z m3005 -832 c345 -40 682 -165 960 -357 467
-322 724 -773 774 -1357 6 -66 11 -279 11 -472 l0 -353 -1645 0 -1645 0 0 -30
c0 -17 7 -66 16 -108 52 -252 203 -464 449 -628 183 -121 351 -188 570 -226
103 -17 148 -20 325 -15 119 3 239 11 285 20 339 64 575 183 778 390 76 78 79
80 96 61 32 -34 445 -489 465 -512 l20 -23 -50 -50 c-184 -189 -501 -390 -779
-494 -417 -156 -968 -199 -1412 -110 -530 107 -1015 429 -1309 870 -165 248
-266 523 -321 875 -25 159 -24 563 1 735 88 609 346 1043 825 1393 444 324
990 459 1586 391z"/>
<path d="M2905 4400 c-173 -19 -306 -56 -460 -130 -396 -190 -621 -490 -642
-857 l-6 -103 1203 0 1203 0 -6 113 c-14 264 -117 500 -288 663 -163 154 -372
258 -601 298 -112 20 -301 27 -403 16z"/>
</g>
</svg>
